<mxfile host="app.diagrams.net" agent="Mozilla/5.0 (Windows NT 10.0; Win64; x64) AppleWebKit/537.36 (KHTML, like Gecko) Chrome/133.0.0.0 Safari/537.36" version="26.0.16">
  <diagram name="Page-1" id="HRrrv8tluGXXsenwog33">
    <mxGraphModel dx="1050" dy="557" grid="1" gridSize="10" guides="1" tooltips="1" connect="1" arrows="1" fold="1" page="1" pageScale="1" pageWidth="850" pageHeight="1100" math="0" shadow="0">
      <root>
        <mxCell id="0" />
        <mxCell id="1" parent="0" />
        <mxCell id="1Bu94KVlyJByQchvjZU8-9" value="" style="curved=1;endArrow=classic;html=1;rounded=0;entryX=0.375;entryY=0;entryDx=0;entryDy=0;entryPerimeter=0;exitX=0.117;exitY=1.037;exitDx=0;exitDy=0;exitPerimeter=0;" edge="1" parent="1">
          <mxGeometry width="50" height="50" relative="1" as="geometry">
            <mxPoint x="170" y="250" as="sourcePoint" />
            <mxPoint x="134.03999999999996" y="132.22000000000003" as="targetPoint" />
            <Array as="points">
              <mxPoint x="120" y="220" />
              <mxPoint x="110" y="170" />
              <mxPoint x="120" y="140" />
            </Array>
          </mxGeometry>
        </mxCell>
        <mxCell id="1Bu94KVlyJByQchvjZU8-10" value="Chess set Holds Resin Printer" style="text;html=1;align=center;verticalAlign=middle;resizable=0;points=[];autosize=1;strokeColor=none;fillColor=none;" vertex="1" parent="1">
          <mxGeometry x="65" y="30" width="180" height="30" as="geometry" />
        </mxCell>
        <mxCell id="1Bu94KVlyJByQchvjZU8-12" value="Chess Set" style="ellipse;whiteSpace=wrap;html=1;aspect=fixed;" vertex="1" parent="1">
          <mxGeometry x="115" y="60" width="80" height="80" as="geometry" />
        </mxCell>
        <mxCell id="1Bu94KVlyJByQchvjZU8-13" value="Resin Printer" style="rounded=0;whiteSpace=wrap;html=1;" vertex="1" parent="1">
          <mxGeometry x="110" y="250" width="120" height="60" as="geometry" />
        </mxCell>
        <mxCell id="1Bu94KVlyJByQchvjZU8-16" value="Toaster" style="ellipse;whiteSpace=wrap;html=1;aspect=fixed;" vertex="1" parent="1">
          <mxGeometry x="345" y="60" width="80" height="80" as="geometry" />
        </mxCell>
        <mxCell id="1Bu94KVlyJByQchvjZU8-17" value="Airbrush" style="rounded=0;whiteSpace=wrap;html=1;" vertex="1" parent="1">
          <mxGeometry x="325" y="250" width="120" height="60" as="geometry" />
        </mxCell>
        <mxCell id="1Bu94KVlyJByQchvjZU8-18" value="Figurine" style="ellipse;whiteSpace=wrap;html=1;aspect=fixed;" vertex="1" parent="1">
          <mxGeometry x="560" y="60" width="80" height="80" as="geometry" />
        </mxCell>
        <mxCell id="1Bu94KVlyJByQchvjZU8-19" value="Toaster Oven" style="rounded=0;whiteSpace=wrap;html=1;" vertex="1" parent="1">
          <mxGeometry x="540" y="250" width="120" height="60" as="geometry" />
        </mxCell>
        <mxCell id="1Bu94KVlyJByQchvjZU8-20" value="" style="curved=1;endArrow=classic;html=1;rounded=0;entryX=0;entryY=0.5;entryDx=0;entryDy=0;exitX=0.75;exitY=0;exitDx=0;exitDy=0;" edge="1" parent="1" source="1Bu94KVlyJByQchvjZU8-17" target="1Bu94KVlyJByQchvjZU8-18">
          <mxGeometry width="50" height="50" relative="1" as="geometry">
            <mxPoint x="590" y="217.78" as="sourcePoint" />
            <mxPoint x="554.04" y="100.00000000000003" as="targetPoint" />
            <Array as="points">
              <mxPoint x="430" y="180" />
              <mxPoint x="520" y="170" />
              <mxPoint x="530" y="150" />
              <mxPoint x="530" y="137.78" />
              <mxPoint x="540" y="107.78" />
            </Array>
          </mxGeometry>
        </mxCell>
        <mxCell id="1Bu94KVlyJByQchvjZU8-23" value="" style="curved=1;endArrow=classic;html=1;rounded=0;exitX=0.003;exitY=0.13;exitDx=0;exitDy=0;exitPerimeter=0;entryX=0.953;entryY=0.823;entryDx=0;entryDy=0;entryPerimeter=0;" edge="1" parent="1" source="1Bu94KVlyJByQchvjZU8-19" target="1Bu94KVlyJByQchvjZU8-16">
          <mxGeometry width="50" height="50" relative="1" as="geometry">
            <mxPoint x="480" y="241.89" as="sourcePoint" />
            <mxPoint x="440" y="120" as="targetPoint" />
            <Array as="points">
              <mxPoint x="430" y="211.89" />
              <mxPoint x="420" y="161.89" />
            </Array>
          </mxGeometry>
        </mxCell>
        <mxCell id="1Bu94KVlyJByQchvjZU8-22" value="Figurine Holds Airbrush" style="text;html=1;align=center;verticalAlign=middle;resizable=0;points=[];autosize=1;strokeColor=none;fillColor=none;" vertex="1" parent="1">
          <mxGeometry x="530" y="20" width="150" height="30" as="geometry" />
        </mxCell>
        <mxCell id="1Bu94KVlyJByQchvjZU8-26" value="Toaster requests Resin Printer" style="text;html=1;align=center;verticalAlign=middle;resizable=0;points=[];autosize=1;strokeColor=none;fillColor=none;" vertex="1" parent="1">
          <mxGeometry x="80" y="320" width="180" height="30" as="geometry" />
        </mxCell>
        <mxCell id="1Bu94KVlyJByQchvjZU8-28" value="" style="curved=1;endArrow=classic;html=1;rounded=0;entryX=1;entryY=0;entryDx=0;entryDy=0;exitX=0.117;exitY=1.037;exitDx=0;exitDy=0;exitPerimeter=0;" edge="1" parent="1" target="1Bu94KVlyJByQchvjZU8-13">
          <mxGeometry width="50" height="50" relative="1" as="geometry">
            <mxPoint x="349.03999999999996" y="116.11000000000003" as="sourcePoint" />
            <mxPoint x="385" y="233.89" as="targetPoint" />
            <Array as="points">
              <mxPoint x="335" y="123.89" />
              <mxPoint x="325" y="153.89" />
              <mxPoint x="335" y="203.89" />
            </Array>
          </mxGeometry>
        </mxCell>
        <mxCell id="1Bu94KVlyJByQchvjZU8-29" value="" style="curved=1;endArrow=classic;html=1;rounded=0;entryX=0.75;entryY=0;entryDx=0;entryDy=0;exitX=1.005;exitY=0.653;exitDx=0;exitDy=0;exitPerimeter=0;" edge="1" parent="1" source="1Bu94KVlyJByQchvjZU8-18" target="1Bu94KVlyJByQchvjZU8-19">
          <mxGeometry width="50" height="50" relative="1" as="geometry">
            <mxPoint x="664.04" y="124.11000000000003" as="sourcePoint" />
            <mxPoint x="700" y="241.89" as="targetPoint" />
            <Array as="points">
              <mxPoint x="650" y="131.89" />
              <mxPoint x="640" y="161.89" />
              <mxPoint x="650" y="211.89" />
            </Array>
          </mxGeometry>
        </mxCell>
        <mxCell id="1Bu94KVlyJByQchvjZU8-30" value="Requests" style="text;html=1;align=center;verticalAlign=middle;resizable=0;points=[];autosize=1;strokeColor=none;fillColor=none;fontFamily=Helvetica;fontSize=11;fontColor=default;labelBackgroundColor=default;" vertex="1" parent="1">
          <mxGeometry x="640" y="168" width="70" height="30" as="geometry" />
        </mxCell>
        <mxCell id="1Bu94KVlyJByQchvjZU8-31" value="" style="curved=1;endArrow=classic;html=1;rounded=0;entryX=0;entryY=0;entryDx=0;entryDy=0;exitX=0.938;exitY=0.625;exitDx=0;exitDy=0;exitPerimeter=0;" edge="1" parent="1" source="1Bu94KVlyJByQchvjZU8-12" target="1Bu94KVlyJByQchvjZU8-17">
          <mxGeometry width="50" height="50" relative="1" as="geometry">
            <mxPoint x="274.03999999999996" y="116.11000000000003" as="sourcePoint" />
            <mxPoint x="310" y="233.89" as="targetPoint" />
            <Array as="points">
              <mxPoint x="260" y="123.89" />
              <mxPoint x="260" y="203.89" />
            </Array>
          </mxGeometry>
        </mxCell>
        <mxCell id="1Bu94KVlyJByQchvjZU8-32" value="requests" style="text;html=1;align=center;verticalAlign=middle;resizable=0;points=[];autosize=1;strokeColor=none;fillColor=none;" vertex="1" parent="1">
          <mxGeometry x="325" y="160" width="70" height="30" as="geometry" />
        </mxCell>
        <mxCell id="1Bu94KVlyJByQchvjZU8-33" value="Toaster Holds Toaster oven" style="text;html=1;align=center;verticalAlign=middle;resizable=0;points=[];autosize=1;strokeColor=none;fillColor=none;" vertex="1" parent="1">
          <mxGeometry x="310" y="30" width="170" height="30" as="geometry" />
        </mxCell>
        <mxCell id="1Bu94KVlyJByQchvjZU8-35" value="Chess set requests Airbrush" style="text;html=1;align=center;verticalAlign=middle;resizable=0;points=[];autosize=1;strokeColor=none;fillColor=none;fontFamily=Helvetica;fontSize=11;fontColor=default;labelBackgroundColor=default;" vertex="1" parent="1">
          <mxGeometry x="305" y="320" width="160" height="30" as="geometry" />
        </mxCell>
        <mxCell id="1Bu94KVlyJByQchvjZU8-36" value="Figurines Requests Toaster Oven" style="text;html=1;align=center;verticalAlign=middle;resizable=0;points=[];autosize=1;strokeColor=none;fillColor=none;fontFamily=Helvetica;fontSize=11;fontColor=default;labelBackgroundColor=default;" vertex="1" parent="1">
          <mxGeometry x="505" y="320" width="190" height="30" as="geometry" />
        </mxCell>
        <mxCell id="1Bu94KVlyJByQchvjZU8-37" value="This Situation above creates a deadlock" style="text;html=1;align=center;verticalAlign=middle;resizable=0;points=[];autosize=1;strokeColor=none;fillColor=none;fontFamily=Helvetica;fontSize=11;fontColor=default;labelBackgroundColor=default;" vertex="1" parent="1">
          <mxGeometry x="275" y="368" width="220" height="30" as="geometry" />
        </mxCell>
        <mxCell id="1Bu94KVlyJByQchvjZU8-38" value="Chess Set" style="ellipse;whiteSpace=wrap;html=1;aspect=fixed;fontFamily=Helvetica;fontSize=11;fontColor=default;labelBackgroundColor=default;" vertex="1" parent="1">
          <mxGeometry x="385" y="580" width="80" height="80" as="geometry" />
        </mxCell>
        <mxCell id="1Bu94KVlyJByQchvjZU8-39" value="Resin Printer" style="rounded=0;whiteSpace=wrap;html=1;fontFamily=Helvetica;fontSize=11;fontColor=default;labelBackgroundColor=default;" vertex="1" parent="1">
          <mxGeometry x="125" y="820" width="120" height="60" as="geometry" />
        </mxCell>
        <mxCell id="1Bu94KVlyJByQchvjZU8-40" value="Airbrush" style="rounded=0;whiteSpace=wrap;html=1;fontFamily=Helvetica;fontSize=11;fontColor=default;labelBackgroundColor=default;" vertex="1" parent="1">
          <mxGeometry x="365" y="820" width="120" height="60" as="geometry" />
        </mxCell>
        <mxCell id="1Bu94KVlyJByQchvjZU8-41" value="Toaster Oven" style="rounded=0;whiteSpace=wrap;html=1;fontFamily=Helvetica;fontSize=11;fontColor=default;labelBackgroundColor=default;" vertex="1" parent="1">
          <mxGeometry x="575" y="820" width="120" height="60" as="geometry" />
        </mxCell>
        <mxCell id="1Bu94KVlyJByQchvjZU8-44" value="" style="endArrow=classic;html=1;rounded=0;strokeColor=default;align=center;verticalAlign=middle;fontFamily=Helvetica;fontSize=11;fontColor=default;labelBackgroundColor=default;curved=1;exitX=0.022;exitY=0.662;exitDx=0;exitDy=0;exitPerimeter=0;entryX=0.408;entryY=-0.023;entryDx=0;entryDy=0;entryPerimeter=0;" edge="1" parent="1" source="1Bu94KVlyJByQchvjZU8-38" target="1Bu94KVlyJByQchvjZU8-39">
          <mxGeometry width="50" height="50" relative="1" as="geometry">
            <mxPoint x="360" y="650" as="sourcePoint" />
            <mxPoint x="255" y="750" as="targetPoint" />
            <Array as="points">
              <mxPoint x="250" y="700" />
            </Array>
          </mxGeometry>
        </mxCell>
        <mxCell id="1Bu94KVlyJByQchvjZU8-45" value="" style="endArrow=classic;html=1;rounded=0;strokeColor=default;align=center;verticalAlign=middle;fontFamily=Helvetica;fontSize=11;fontColor=default;labelBackgroundColor=default;curved=1;exitX=0.313;exitY=1;exitDx=0;exitDy=0;exitPerimeter=0;entryX=0.25;entryY=0;entryDx=0;entryDy=0;" edge="1" parent="1" source="1Bu94KVlyJByQchvjZU8-38" target="1Bu94KVlyJByQchvjZU8-40">
          <mxGeometry width="50" height="50" relative="1" as="geometry">
            <mxPoint x="491.5" y="680" as="sourcePoint" />
            <mxPoint x="278.5" y="866" as="targetPoint" />
            <Array as="points">
              <mxPoint x="354.5" y="747" />
            </Array>
          </mxGeometry>
        </mxCell>
        <mxCell id="1Bu94KVlyJByQchvjZU8-46" value="" style="endArrow=classic;html=1;rounded=0;strokeColor=default;align=center;verticalAlign=middle;fontFamily=Helvetica;fontSize=11;fontColor=default;labelBackgroundColor=default;curved=1;exitX=1;exitY=0.5;exitDx=0;exitDy=0;entryX=0.392;entryY=-0.05;entryDx=0;entryDy=0;entryPerimeter=0;" edge="1" parent="1" source="1Bu94KVlyJByQchvjZU8-38">
          <mxGeometry width="50" height="50" relative="1" as="geometry">
            <mxPoint x="508.64427124746214" y="651.2842712474621" as="sourcePoint" />
            <mxPoint x="677.4" y="820" as="targetPoint" />
            <Array as="points">
              <mxPoint x="691.36" y="690" />
            </Array>
          </mxGeometry>
        </mxCell>
        <mxCell id="1Bu94KVlyJByQchvjZU8-47" value="Holds briefly" style="text;html=1;align=center;verticalAlign=middle;resizable=0;points=[];autosize=1;strokeColor=none;fillColor=none;fontFamily=Helvetica;fontSize=11;fontColor=default;labelBackgroundColor=default;" vertex="1" parent="1">
          <mxGeometry x="170" y="710" width="80" height="30" as="geometry" />
        </mxCell>
        <mxCell id="1Bu94KVlyJByQchvjZU8-48" value="Holds briefly" style="text;html=1;align=center;verticalAlign=middle;resizable=0;points=[];autosize=1;strokeColor=none;fillColor=none;fontFamily=Helvetica;fontSize=11;fontColor=default;labelBackgroundColor=default;" vertex="1" parent="1">
          <mxGeometry x="380" y="730" width="80" height="30" as="geometry" />
        </mxCell>
        <mxCell id="1Bu94KVlyJByQchvjZU8-49" value="Holds Briefly" style="text;html=1;align=center;verticalAlign=middle;resizable=0;points=[];autosize=1;strokeColor=none;fillColor=none;fontFamily=Helvetica;fontSize=11;fontColor=default;labelBackgroundColor=default;" vertex="1" parent="1">
          <mxGeometry x="650" y="710" width="90" height="30" as="geometry" />
        </mxCell>
        <mxCell id="1Bu94KVlyJByQchvjZU8-50" value="" style="endArrow=classic;html=1;rounded=0;strokeColor=default;align=center;verticalAlign=middle;fontFamily=Helvetica;fontSize=11;fontColor=default;labelBackgroundColor=default;curved=1;exitX=0.75;exitY=0;exitDx=0;exitDy=0;" edge="1" parent="1" source="1Bu94KVlyJByQchvjZU8-39" target="1Bu94KVlyJByQchvjZU8-38">
          <mxGeometry width="50" height="50" relative="1" as="geometry">
            <mxPoint x="195" y="838" as="sourcePoint" />
            <mxPoint x="408" y="652" as="targetPoint" />
            <Array as="points">
              <mxPoint x="271" y="719" />
            </Array>
          </mxGeometry>
        </mxCell>
        <mxCell id="1Bu94KVlyJByQchvjZU8-51" value="Release" style="text;html=1;align=center;verticalAlign=middle;resizable=0;points=[];autosize=1;strokeColor=none;fillColor=none;fontFamily=Helvetica;fontSize=11;fontColor=default;labelBackgroundColor=default;" vertex="1" parent="1">
          <mxGeometry x="275" y="720" width="60" height="30" as="geometry" />
        </mxCell>
        <mxCell id="1Bu94KVlyJByQchvjZU8-52" value="" style="endArrow=classic;html=1;rounded=0;strokeColor=default;align=center;verticalAlign=middle;fontFamily=Helvetica;fontSize=11;fontColor=default;labelBackgroundColor=default;curved=1;entryX=0.743;entryY=0.972;entryDx=0;entryDy=0;entryPerimeter=0;exitX=0.855;exitY=-0.063;exitDx=0;exitDy=0;exitPerimeter=0;" edge="1" parent="1" source="1Bu94KVlyJByQchvjZU8-40" target="1Bu94KVlyJByQchvjZU8-38">
          <mxGeometry width="50" height="50" relative="1" as="geometry">
            <mxPoint x="455" y="820" as="sourcePoint" />
            <mxPoint x="505" y="770" as="targetPoint" />
            <Array as="points">
              <mxPoint x="480" y="730" />
            </Array>
          </mxGeometry>
        </mxCell>
        <mxCell id="1Bu94KVlyJByQchvjZU8-53" value="Re&lt;span style=&quot;background-color: light-dark(#ffffff, var(--ge-dark-color, #121212)); color: light-dark(rgb(0, 0, 0), rgb(255, 255, 255));&quot;&gt;lease&lt;/span&gt;" style="text;html=1;align=center;verticalAlign=middle;resizable=0;points=[];autosize=1;strokeColor=none;fillColor=none;fontFamily=Helvetica;fontSize=11;fontColor=default;labelBackgroundColor=default;" vertex="1" parent="1">
          <mxGeometry x="470" y="720" width="60" height="30" as="geometry" />
        </mxCell>
        <mxCell id="1Bu94KVlyJByQchvjZU8-55" value="" style="endArrow=classic;html=1;rounded=0;strokeColor=default;align=center;verticalAlign=middle;fontFamily=Helvetica;fontSize=11;fontColor=default;labelBackgroundColor=default;curved=1;exitX=0.125;exitY=-0.05;exitDx=0;exitDy=0;exitPerimeter=0;entryX=0.922;entryY=0.722;entryDx=0;entryDy=0;entryPerimeter=0;" edge="1" parent="1" target="1Bu94KVlyJByQchvjZU8-38">
          <mxGeometry width="50" height="50" relative="1" as="geometry">
            <mxPoint x="619.35" y="820" as="sourcePoint" />
            <mxPoint x="484.9976617250328" y="648.7044904790596" as="targetPoint" />
            <Array as="points">
              <mxPoint x="609.35" y="753" />
            </Array>
          </mxGeometry>
        </mxCell>
        <mxCell id="1Bu94KVlyJByQchvjZU8-57" value="Release" style="text;html=1;align=center;verticalAlign=middle;resizable=0;points=[];autosize=1;strokeColor=none;fillColor=none;fontFamily=Helvetica;fontSize=11;fontColor=default;labelBackgroundColor=default;" vertex="1" parent="1">
          <mxGeometry x="570" y="720" width="60" height="30" as="geometry" />
        </mxCell>
        <mxCell id="1Bu94KVlyJByQchvjZU8-60" value="The situation above shows on preventing deadlock" style="text;html=1;align=center;verticalAlign=middle;resizable=0;points=[];autosize=1;strokeColor=none;fillColor=none;fontFamily=Helvetica;fontSize=11;fontColor=default;labelBackgroundColor=default;" vertex="1" parent="1">
          <mxGeometry x="300" y="920" width="270" height="30" as="geometry" />
        </mxCell>
      </root>
    </mxGraphModel>
  </diagram>
</mxfile>
